<svg aria-hidden="true" style="position: absolute; width: 0; height: 0; overflow: hidden;" version="1.1" xmlns="http://www.w3.org/2000/svg" xmlns:xlink="http://www.w3.org/1999/xlink">
<defs>
<symbol id="icon-panel-antena-1" viewBox="0 0 32 32">
<path  d="M30.773 22.098l-8.443-8.505 0.937-4.615c0.242 0.094 0.499 0.144 0.758 0.146h0.006c1.192 0.014 2.17-0.941 2.184-2.133s-0.941-2.17-2.133-2.184c-1.192-0.014-2.17 0.941-2.184 2.133-0.003 0.255 0.039 0.509 0.125 0.749l-4.96 0.605-8.091-8.133c-0.099-0.101-0.235-0.159-0.377-0.16-0.14 0.001-0.274 0.056-0.373 0.155l-1.513 1.504c-0.208 0.208-0.208 0.546 0 0.754l0.814 0.826c-3.153 5.798-2.129 12.978 2.519 17.663 0.043 0.041 0.092 0.074 0.146 0.098-0.034 0.18-0.051 0.364-0.052 0.547v6.187h-6.4c-1.472 0.002-2.665 1.195-2.667 2.667v1.067c0 0.295 0.239 0.533 0.533 0.533h24.533c0.295 0 0.533-0.239 0.533-0.533v-1.067c-0.002-1.472-1.195-2.665-2.667-2.667h-6.4v-2.742c1.003 0.21 2.024 0.317 3.049 0.32 2.458-0.003 4.877-0.615 7.040-1.783l0.818 0.823c0.099 0.101 0.235 0.159 0.377 0.16 0.14-0.001 0.274-0.056 0.373-0.155l1.513-1.504c0.208-0.208 0.208-0.546 0-0.754zM23.28 6.233c0.418-0.415 1.093-0.414 1.508 0.004s0.414 1.093-0.004 1.508c-0.2 0.199-0.47 0.31-0.752 0.31h-0.003c-0.589-0.003-1.064-0.483-1.061-1.072 0.002-0.282 0.115-0.552 0.314-0.751h-0.002zM22.024 9.738l-0.598 2.946-1.175-1.182 1.774-1.763zM21.419 8.836l-1.92 1.909-1.485-1.493 3.405-0.415zM24.004 28.8c0.884 0 1.6 0.716 1.6 1.6v0.533h-23.467v-0.533c0-0.884 0.716-1.6 1.6-1.6h20.267zM16.537 26.667v1.067h-5.333v-1.067h5.333zM11.204 25.6v-4.053c0-1.294 1.196-2.347 2.667-2.347s2.667 1.053 2.667 2.347v4.053h-5.333zM17.604 23.904v-2.357c0-1.882-1.675-3.413-3.733-3.413-1.331-0.020-2.576 0.657-3.281 1.786-4.058-4.274-4.971-10.645-2.279-15.887l18.602 18.708c-2.872 1.461-6.165 1.873-9.309 1.163zM28.893 23.22l-21.057-21.181 0.755-0.752 7.935 7.98c0.004 0 0.006 0.007 0.010 0.010l13.115 13.191-0.757 0.752z"></path>
<path  d="M13.876 20.267h-0.005c-0.884-0.001-1.601 0.714-1.602 1.598s0.714 1.601 1.598 1.602h0.005c0.884 0.001 1.601-0.714 1.602-1.598s-0.714-1.601-1.598-1.602zM14.249 22.245c-0.1 0.1-0.236 0.156-0.378 0.155-0.295-0.002-0.532-0.242-0.531-0.536 0.001-0.141 0.057-0.276 0.157-0.375s0.233-0.154 0.373-0.155c0.295 0.002 0.532 0.241 0.53 0.536-0.001 0.141-0.057 0.276-0.157 0.375h0.005z"></path>
</symbol>
<symbol id="icon-panel-astronauta-4" viewBox="0 0 32 32">
<path  d="M0 0h32v32h-32v-32z"></path>
<path  d="M-551.314-362.971h731.429v1339.886h-731.429v-1339.886z"></path>
<path  d="M-43.886-11.429h119.771c1.010 0 1.829 0.819 1.829 1.829v51.2c0 1.010-0.819 1.829-1.829 1.829h-119.771c-1.010 0-1.829-0.819-1.829-1.829v-51.2c0-1.010 0.819-1.829 1.829-1.829z"></path>
<path  d="M31.974 4.524c-0.063-0.193-0.229-0.333-0.43-0.363l-1.91-0.278-0.855-1.731c-0.179-0.365-0.777-0.365-0.956 0l-0.855 1.731-1.91 0.278c-0.201 0.029-0.367 0.17-0.431 0.363-0.062 0.193-0.011 0.405 0.135 0.547l1.383 1.348-0.326 1.903c-0.034 0.2 0.048 0.402 0.212 0.522 0.166 0.121 0.382 0.135 0.562 0.040l1.709-0.899 1.709 0.899c0.078 0.041 0.164 0.061 0.249 0.061 0.11 0 0.221-0.034 0.314-0.102 0.164-0.119 0.246-0.322 0.212-0.522l-0.326-1.903 1.383-1.348c0.145-0.142 0.197-0.354 0.135-0.547zM29.511 5.851c-0.125 0.122-0.183 0.299-0.153 0.472l0.191 1.114-1-0.526c-0.078-0.041-0.163-0.061-0.249-0.061s-0.17 0.020-0.249 0.061l-1.001 0.526 0.191-1.114c0.030-0.173-0.028-0.349-0.153-0.472l-0.81-0.789 1.119-0.163c0.174-0.025 0.324-0.134 0.402-0.292l0.5-1.013 0.5 1.013c0.078 0.157 0.228 0.267 0.402 0.292l1.119 0.163-0.809 0.789z"></path>
<path  d="M26.134 20.522h-1.067v1.067h1.067v-1.067z"></path>
<path  d="M26.134 22.656h-1.067v1.067h1.067v-1.067z"></path>
<path  d="M27.2 21.589h-1.067v1.067h1.067v-1.067z"></path>
<path  d="M25.067 21.589h-1.067v1.067h1.067v-1.067z"></path>
<path  d="M22.4 26.389h-1.067v1.067h1.067v-1.067z"></path>
<path  d="M22.4 28.522h-1.067v1.067h1.067v-1.067z"></path>
<path  d="M23.467 27.456h-1.067v1.067h1.067v-1.067z"></path>
<path  d="M21.333 27.456h-1.067v1.067h1.067v-1.067z"></path>
<path  d="M16 24.256h-1.067v1.067h1.067v-1.067z"></path>
<path  d="M16 26.389h-1.067v1.067h1.067v-1.067z"></path>
<path  d="M17.067 25.322h-1.067v1.067h1.067v-1.067z"></path>
<path  d="M14.933 25.322h-1.067v1.067h1.067v-1.067z"></path>
<path  d="M5.867 6.122h-1.067v1.067h1.067v-1.067z"></path>
<path  d="M5.867 8.255h-1.067v1.067h1.067v-1.067z"></path>
<path  d="M6.933 7.189h-1.067v1.067h1.067v-1.067z"></path>
<path  d="M4.8 7.189h-1.067v1.067h1.067v-1.067z"></path>
<path  d="M24.715 14.159c-0.287-0.388-0.709-0.637-1.188-0.705-0.481-0.068-0.956 0.058-1.34 0.352l-1.252 0.96-1.898 1.417-1.358-0.541c2.421-1.086 4.114-3.508 4.114-6.32 0-3.823-3.123-6.933-6.961-6.933s-6.961 3.11-6.961 6.933c0 1.386 0.414 2.674 1.12 3.758l-2.764-0.024c-0.002 0-0.003 0-0.005 0-0.009 0-0.015 0.004-0.023 0.005-0.053 0.002-0.105 0.013-0.155 0.031-0.013 0.005-0.026 0.008-0.038 0.013-0.006 0.003-0.013 0.003-0.019 0.006l-3.233 1.596c-0.001 0-0.001 0-0.001 0.001l-1.893 0.911c-0.021 0.009-0.042 0.021-0.063 0.035-0.755 0.502-1.012 1.489-0.598 2.295 0.22 0.429 0.595 0.745 1.056 0.889 0.178 0.055 0.359 0.083 0.539 0.083 0.29 0 0.577-0.071 0.839-0.211l1.388-0.738 2.264-1.169 1.357-0.008-5.442 5.416c-0.001 0.001-0.001 0.001-0.002 0.001l-1.339 1.333c-0.316 0.315-0.49 0.732-0.49 1.178s0.174 0.863 0.49 1.179c0.325 0.323 0.752 0.485 1.179 0.485s0.854-0.162 1.18-0.485l1.314-1.309 1.741-1.3 0.901 0.897-1.762 1.754c-0 0.001-0.001 0.001-0.002 0.001l-1.339 1.333c-0.316 0.315-0.49 0.732-0.49 1.178s0.174 0.863 0.49 1.179c0.325 0.323 0.753 0.485 1.18 0.485s0.855-0.162 1.18-0.485l3.482-3.467c0.001-0.001 0.001-0.001 0.001-0.002l1.010-1-0.004-0.004c0.006-0.006 0.015-0.009 0.022-0.015l5.166-5.658 3.471 0.494c0.025 0.004 0.050 0.005 0.075 0.005 0.065 0 0.127-0.015 0.187-0.038 0.018-0.006 0.033-0.015 0.050-0.023 0.019-0.010 0.039-0.015 0.058-0.027l3.213-2.133c0.012-0.008 0.018-0.021 0.029-0.029 0.013-0.010 0.029-0.014 0.041-0.026l1.271-1.191c0.662-0.62 0.753-1.635 0.212-2.362zM2.13 17.77c-0.173 0.093-0.37 0.111-0.558 0.052-0.187-0.058-0.338-0.186-0.427-0.358-0.161-0.314-0.068-0.695 0.214-0.902l1.314-0.632 0.449 1.312-0.992 0.528zM5.628 15.942l-1.548 0.8-0.439-1.283 2.027-1.001-0.040 1.484zM20.727 9.322c0 0.918-0.219 1.785-0.599 2.559l-4.181-1.899c-0.044-0.573-0.341-1.075-0.788-1.388l1.464-4.86c2.378 0.756 4.105 2.974 4.105 5.588zM8.938 9.322c0-3.235 2.644-5.867 5.894-5.867 0.253 0 0.5 0.021 0.745 0.052l-1.432 4.754c-0.019-0.001-0.037-0.006-0.057-0.006-1.033 0-1.873 0.837-1.873 1.867s0.84 1.867 1.873 1.867c0.694 0 1.294-0.383 1.618-0.945l3.862 1.755c-1.075 1.446-2.795 2.39-4.737 2.39-3.25 0-5.894-2.632-5.894-5.867zM14.894 10.122c0 0.441-0.362 0.8-0.806 0.8s-0.806-0.359-0.806-0.8c0-0.441 0.362-0.8 0.806-0.8s0.806 0.359 0.806 0.8zM2.465 25.146c-0.236 0.234-0.619 0.234-0.854 0.001-0.114-0.114-0.176-0.263-0.176-0.423s0.062-0.309 0.176-0.421l0.962-0.958 0.851 0.848-0.959 0.955zM5.679 28.88c-0.236 0.234-0.619 0.235-0.855 0.001-0.114-0.114-0.176-0.263-0.176-0.423s0.062-0.309 0.176-0.421l0.963-0.959 0.852 0.848-0.96 0.955zM9.16 25.411c-0.001 0-0.001 0-0.002 0.001l-1.765 1.76-0.852-0.848 1.763-1.755c0 0 0 0 0-0s0.001-0.001 0.002-0.001c0.040-0.040 0.065-0.088 0.090-0.135 0.007-0.014 0.020-0.026 0.026-0.040 0.017-0.041 0.019-0.085 0.026-0.129 0.003-0.025 0.014-0.047 0.014-0.073 0-0.036-0.013-0.070-0.020-0.106-0.006-0.032-0.006-0.065-0.019-0.095-0.020-0.050-0.055-0.094-0.091-0.138-0.010-0.012-0.014-0.027-0.025-0.038 0 0 0 0-0.001 0s-0.001-0.002-0.001-0.002l-1.607-1.6c-0.017-0.017-0.039-0.024-0.058-0.038-0.028-0.022-0.055-0.042-0.087-0.058-0.030-0.015-0.061-0.024-0.093-0.033-0.034-0.010-0.067-0.017-0.103-0.020-0.033-0.002-0.063 0.001-0.095 0.005-0.036 0.004-0.069 0.009-0.104 0.020-0.034 0.011-0.063 0.027-0.094 0.045-0.020 0.011-0.042 0.015-0.061 0.029l-1.773 1.324-0.901-0.897 2.399-2.386 4.361 4.289-0.928 0.919zM15.979 18.394c-0.015-0.002-0.030 0.004-0.045 0.003-0.039-0.002-0.076 0.001-0.115 0.007-0.030 0.005-0.059 0.011-0.088 0.021-0.034 0.012-0.065 0.028-0.097 0.047-0.030 0.018-0.057 0.037-0.083 0.061-0.013 0.011-0.028 0.017-0.040 0.029l-4.698 5.146-4.328-4.257 2.833-2.818c0.209-0.208 0.21-0.546 0.002-0.755-0.105-0.105-0.243-0.157-0.381-0.156v-0.001l-2.219 0.013 0.028-1.607 3.104 0.027c1.265 1.294 3.029 2.101 4.981 2.101 0.437 0 0.864-0.045 1.279-0.123 0.040 0.032 0.079 0.065 0.13 0.085l2.41 0.96 0.152 0.758 0.178 0.885-3.003-0.427zM20.020 18.572l-0.313-1.558 1.446-1.080 0.947 1.257-2.080 1.381zM23.774 15.741l-0.838 0.785-0.931-1.236 0.831-0.637c0.155-0.119 0.351-0.168 0.543-0.143 0.193 0.027 0.364 0.128 0.48 0.284 0.217 0.292 0.18 0.699-0.085 0.947z"></path>
<path  d="M13.602 18.544l-2.143-2.133c-0.207-0.207-0.545-0.207-0.753 0l-2.142 2.133c-0.1 0.101-0.157 0.236-0.157 0.378s0.056 0.278 0.157 0.378l2.142 2.133c0.104 0.103 0.241 0.155 0.377 0.155s0.273-0.052 0.376-0.155l2.143-2.133c0.1-0.1 0.157-0.236 0.157-0.378s-0.057-0.278-0.157-0.378zM11.083 20.303l-1.387-1.381 1.387-1.381 1.387 1.381-1.387 1.381z"></path>
<path  d="M17.164 5.071l-0.258 1.036c0.071 0.018 1.738 0.452 1.738 2.149h1.067c-0-2.017-1.666-2.965-2.547-3.185z"></path>
<path  d="M19.711 9.322h-1.067v1.067h1.067v-1.067z"></path>
</symbol>
<symbol id="icon-panel-diagrama-3" viewBox="0 0 32 32">
<path  d="M0 0h32v32h-32v-32z"></path>
<path  d="M-414.171-362.971h731.429v1339.886h-731.429v-1339.886z"></path>
<path  d="M-43.886-11.429h119.771c1.010 0 1.829 0.819 1.829 1.829v51.2c0 1.010-0.819 1.829-1.829 1.829h-119.771c-1.010 0-1.829-0.819-1.829-1.829v-51.2c0-1.010 0.819-1.829 1.829-1.829z"></path>
<path  d="M14.926 14.965h1.066v4.798h-1.066v-4.797z"></path>
<path  d="M19.19 17.097h1.066v2.665h-1.066v-2.665z"></path>
<path  d="M10.661 18.696h1.066v1.066h-1.066v-1.066z"></path>
<path  d="M7.463 18.163h1.066v1.599h-1.066v-1.599z"></path>
<path  d="M1.599 28.291h25.587c0.883 0 1.599-0.716 1.599-1.599v-2.132c0-0.883-0.716-1.599-1.599-1.599h-0.533v-13.293l3.028-2.868c0.703 0.346 1.553 0.136 2.013-0.499s0.396-1.508-0.152-2.068-1.42-0.644-2.065-0.198c-0.644 0.446-0.873 1.292-0.542 2.002l-2.281 2.163v-1.23c0-0.883-0.716-1.599-1.599-1.599h-21.322c-0.883 0-1.599 0.716-1.599 1.599v15.992h-0.533c-0.883 0-1.599 0.716-1.599 1.599v2.132c0 0.883 0.716 1.599 1.599 1.599zM30.384 4.837c0.294 0 0.533 0.239 0.533 0.533s-0.239 0.533-0.533 0.533c-0.294 0-0.533-0.239-0.533-0.533s0.239-0.533 0.533-0.533zM3.198 6.969c0-0.294 0.239-0.533 0.533-0.533h21.322c0.294 0 0.533 0.239 0.533 0.533v2.239l-1.066 1.013v-2.186c0-0.294-0.239-0.533-0.533-0.533h-19.19c-0.294 0-0.533 0.239-0.533 0.533v13.326c0 0.294 0.239 0.533 0.533 0.533h19.19c0.294 0 0.533-0.239 0.533-0.533v-9.674l1.066-1.010v12.284h-22.388v-15.992zM7.996 13.899c-0.721-0.002-1.354 0.478-1.546 1.174s0.105 1.433 0.725 1.801c0.62 0.368 1.41 0.276 1.928-0.226l1.853 0.93c0.215 0.108 0.476 0.057 0.636-0.123l3.939-4.431 3.872 2.901c0.208 0.156 0.498 0.139 0.686-0.039l3.365-3.188v8.131h-18.124v-12.26h18.124v2.66l-3.771 3.572-3.904-2.927c-0.222-0.166-0.534-0.135-0.718 0.072l-3.993 4.493-1.493-0.746c0.011-0.064 0.018-0.129 0.020-0.193 0-0.883-0.716-1.599-1.599-1.599zM8.529 15.498c0 0.294-0.239 0.533-0.533 0.533s-0.533-0.239-0.533-0.533c0-0.294 0.239-0.533 0.533-0.533s0.533 0.239 0.533 0.533zM11.727 24.027h5.331v0.533c0 0.294-0.239 0.533-0.533 0.533h-4.264c-0.294 0-0.533-0.239-0.533-0.533v-0.533zM1.066 24.56c0-0.294 0.239-0.533 0.533-0.533h9.062v0.533c0 0.883 0.716 1.599 1.599 1.599h4.264c0.883 0 1.599-0.716 1.599-1.599v-0.533h9.062c0.294 0 0.533 0.239 0.533 0.533v2.132c0 0.294-0.239 0.533-0.533 0.533h-25.587c-0.294 0-0.533-0.239-0.533-0.533v-2.132z"></path>
</symbol>
<symbol id="icon-facebook" viewBox="0 0 32 32">
<path  d="M21.329 5.313h2.921v-5.088c-0.504-0.069-2.237-0.225-4.256-0.225-4.212 0-7.097 2.649-7.097 7.519v4.481h-4.648v5.688h4.648v14.312h5.699v-14.311h4.46l0.708-5.688h-5.169v-3.919c0.001-1.644 0.444-2.769 2.735-2.769z"></path>
</symbol>
<symbol id="icon-instagram" viewBox="0 0 32 32">
<path  d="M31.969 9.408c-0.075-1.7-0.35-2.869-0.744-3.882-0.406-1.075-1.032-2.038-1.851-2.838-0.8-0.813-1.769-1.444-2.832-1.844-1.019-0.394-2.182-0.669-3.882-0.744-1.713-0.081-2.257-0.1-6.601-0.1s-4.888 0.019-6.595 0.094c-1.7 0.075-2.869 0.35-3.882 0.744-1.075 0.406-2.038 1.031-2.838 1.85-0.813 0.8-1.444 1.769-1.844 2.832-0.394 1.019-0.669 2.182-0.744 3.882-0.081 1.713-0.1 2.257-0.1 6.601s0.019 4.888 0.094 6.595c0.075 1.7 0.35 2.869 0.744 3.882 0.406 1.075 1.038 2.038 1.85 2.838 0.8 0.813 1.769 1.444 2.832 1.844 1.019 0.394 2.182 0.669 3.882 0.744 1.706 0.075 2.25 0.094 6.595 0.094s4.888-0.019 6.595-0.094c1.7-0.075 2.869-0.35 3.882-0.744 2.151-0.832 3.851-2.532 4.682-4.682 0.394-1.019 0.669-2.182 0.744-3.882 0.075-1.707 0.094-2.251 0.094-6.595s-0.006-4.888-0.081-6.595zM29.087 22.473c-0.069 1.563-0.331 2.407-0.55 2.969-0.538 1.394-1.644 2.5-3.038 3.038-0.563 0.219-1.413 0.481-2.969 0.55-1.688 0.075-2.194 0.094-6.464 0.094s-4.782-0.019-6.464-0.094c-1.563-0.069-2.407-0.331-2.969-0.55-0.694-0.256-1.325-0.663-1.838-1.194-0.531-0.519-0.938-1.144-1.194-1.838-0.219-0.563-0.481-1.413-0.55-2.969-0.075-1.688-0.094-2.194-0.094-6.464s0.019-4.782 0.094-6.464c0.069-1.563 0.331-2.407 0.55-2.969 0.256-0.694 0.663-1.325 1.2-1.838 0.519-0.531 1.144-0.938 1.838-1.194 0.563-0.219 1.413-0.481 2.969-0.55 1.688-0.075 2.194-0.094 6.464-0.094 4.276 0 4.782 0.019 6.464 0.094 1.563 0.069 2.407 0.331 2.969 0.55 0.694 0.256 1.325 0.662 1.838 1.194 0.531 0.519 0.938 1.144 1.194 1.838 0.219 0.563 0.481 1.413 0.55 2.969 0.075 1.688 0.094 2.194 0.094 6.464s-0.019 4.77-0.094 6.458z"></path>
<path  d="M16.059 7.783c-4.538 0-8.22 3.682-8.22 8.22s3.682 8.22 8.22 8.22c4.538 0 8.22-3.682 8.22-8.22s-3.682-8.22-8.22-8.22zM16.059 21.335c-2.944 0-5.332-2.388-5.332-5.332s2.388-5.332 5.332-5.332c2.944 0 5.332 2.388 5.332 5.332s-2.388 5.332-5.332 5.332z"></path>
<path  d="M26.524 7.458c0 1.060-0.859 1.919-1.919 1.919s-1.919-0.859-1.919-1.919c0-1.060 0.859-1.919 1.919-1.919s1.919 0.859 1.919 1.919z"></path>
</symbol>
<symbol id="icon-linkedin" viewBox="0 0 32 32">
<path  d="M31.992 32v-0.001h0.008v-11.736c0-5.741-1.236-10.164-7.948-10.164-3.227 0-5.392 1.771-6.276 3.449h-0.093v-2.913h-6.364v21.364h6.627v-10.579c0-2.785 0.528-5.479 3.977-5.479 3.399 0 3.449 3.179 3.449 5.657v10.401h6.62z"></path>
<path  d="M0.528 10.636h6.635v21.364h-6.635v-21.364z"></path>
<path  d="M3.843 0c-2.121 0-3.843 1.721-3.843 3.843s1.721 3.879 3.843 3.879c2.121 0 3.843-1.757 3.843-3.879-0.001-2.121-1.723-3.843-3.843-3.843v0z"></path>
</symbol>






<symbol id="icon-panel-reloj-2" viewBox="0 0 31 32">
<path  d="M29.317 13.732c-0.002-7.585-6.152-13.733-13.738-13.732s-13.733 6.152-13.732 13.738c0.001 5.975 3.865 11.264 9.557 13.081 0.054 0.017 0.111 0.026 0.168 0.026 0.108-0 0.214-0.029 0.307-0.084 0.121-0.072 0.212-0.186 0.254-0.32l3.469-10.994c0.948-0.005 1.713-0.778 1.708-1.726s-0.777-1.713-1.726-1.708c-0.255 0.001-0.507 0.060-0.736 0.172l-4.582-4.583c-0.227-0.22-0.59-0.213-0.809 0.014-0.214 0.222-0.214 0.573 0 0.795l4.58 4.585c-0.351 0.717-0.151 1.583 0.481 2.072l-3.305 10.476c-6.531-2.406-9.876-9.651-7.47-16.182s9.651-9.876 16.182-7.47 9.876 9.651 7.47 16.182c-1.175 3.191-3.591 5.772-6.697 7.156l-0.357-1.682c-0.065-0.309-0.369-0.507-0.678-0.441-0.098 0.021-0.188 0.067-0.262 0.133l-3.443 3.074c-0.236 0.21-0.257 0.572-0.047 0.808 0.068 0.077 0.156 0.134 0.254 0.165l4.396 1.403c0.301 0.097 0.623-0.069 0.72-0.37 0.031-0.095 0.036-0.196 0.015-0.294l-0.351-1.65c5.083-2.143 8.384-7.128 8.372-12.644zM15.583 13.16c0.316 0 0.572 0.256 0.572 0.572s-0.256 0.572-0.572 0.572c-0.316 0-0.572-0.256-0.572-0.572s0.256-0.572 0.572-0.572zM17.468 26.499l1.96-1.748 0.541 2.549-2.501-0.801z"></path>
<path  d="M15.010 2.858v1.145c0 0.316 0.256 0.572 0.572 0.572s0.572-0.256 0.572-0.572v-1.145c0-0.316-0.256-0.572-0.572-0.572s-0.572 0.256-0.572 0.572z"></path>
<path  d="M4.709 13.16c-0.316 0-0.572 0.256-0.572 0.572s0.256 0.572 0.572 0.572h1.145c0.316 0 0.572-0.256 0.572-0.572s-0.256-0.572-0.572-0.572h-1.145z"></path>
<path  d="M26.456 14.304c0.316 0 0.572-0.256 0.572-0.572s-0.256-0.572-0.572-0.572h-1.145c-0.316 0-0.572 0.256-0.572 0.572s0.256 0.572 0.572 0.572h1.145z"></path>
</symbol>
<symbol id="icon-logo-email" viewBox="0 0 43 32">
<path  d="M38.667 0h-34.667c-2.206 0-4 1.794-4 4v24c0 2.206 1.794 4 4 4h34.667c2.206 0 4-1.794 4-4v-24c0-2.206-1.794-4-4-4zM38.667 2.667c0.181 0 0.353 0.038 0.511 0.103l-17.844 15.466-17.844-15.466c0.158-0.066 0.33-0.103 0.511-0.103h34.667zM38.667 29.333h-34.667c-0.736 0-1.333-0.598-1.333-1.333v-22.413l17.793 15.421c0.251 0.217 0.563 0.326 0.874 0.326s0.622-0.108 0.874-0.326l17.793-15.421v22.413c0 0.736-0.598 1.333-1.333 1.333z"></path>
</symbol>
<symbol id="icon-logo-telefono" viewBox="0 0 20 32">
<path  d="M17 0h-14c-1.654 0-3 1.346-3 3v26c0 1.654 1.346 3 3 3h14c1.654 0 3-1.346 3-3v-26c0-1.654-1.346-3-3-3zM3 2h14c0.552 0 1 0.448 1 1v21h-16v-21c0-0.552 0.448-1 1-1zM17 30h-14c-0.552 0-1-0.448-1-1v-3h16v3c0 0.552-0.448 1-1 1z"></path>
<path  d="M4.707 27.478c0.391 0.365 0.391 0.956 0 1.321s-1.024 0.365-1.414 0c-0.391-0.365-0.391-0.956 0-1.321s1.024-0.365 1.414 0z"></path>
</symbol>
<symbol id="icon-twitter" viewBox="0 0 32 32">
<path  d="M32 6.078c-1.19 0.522-2.458 0.868-3.78 1.036 1.36-0.812 2.398-2.088 2.886-3.626-1.268 0.756-2.668 1.29-4.16 1.588-1.204-1.282-2.92-2.076-4.792-2.076-3.632 0-6.556 2.948-6.556 6.562 0 0.52 0.044 1.020 0.152 1.496-5.454-0.266-10.28-2.88-13.522-6.862-0.566 0.982-0.898 2.106-0.898 3.316 0 2.272 1.17 4.286 2.914 5.452-1.054-0.020-2.088-0.326-2.964-0.808 0 0.020 0 0.046 0 0.072 0 3.188 2.274 5.836 5.256 6.446-0.534 0.146-1.116 0.216-1.72 0.216-0.42 0-0.844-0.024-1.242-0.112 0.85 2.598 3.262 4.508 6.13 4.57-2.232 1.746-5.066 2.798-8.134 2.798-0.538 0-1.054-0.024-1.57-0.090 2.906 1.874 6.35 2.944 10.064 2.944 12.072 0 18.672-10 18.672-18.668 0-0.29-0.010-0.57-0.024-0.848 1.302-0.924 2.396-2.078 3.288-3.406z"></path>
</symbol>



  <!-- company -->
    <symbol id="company-1">
        <path fill-rule="evenodd" clip-rule="evenodd" d="M6 0L13.0078 6.63413L0 6.62646V38.8137H34V26.507L41 33.1338V0H6ZM33.6924 25.7283L13.8226 6.91796H33.6924V25.7283ZM27.5231 34.1055H5.38008V12.4579H6.9453V32.6397H27.5231V34.1055ZM10.6089 43.0991L9.79102 44.7837L8.97314 43.0991H8.28711L9.48096 45.3452V46.6538H10.1011V45.3452L11.2925 43.0991H10.6089ZM11.6367 46.6538L11.9248 45.8262H13.3018L13.5923 46.6538H14.2368L12.8916 43.0991H12.3374L10.9946 46.6538H11.6367ZM12.6133 43.8535L13.1284 45.3281H12.0981L12.6133 43.8535ZM15.8701 45.2427C15.7806 45.3794 15.7358 45.5299 15.7358 45.6943C15.7358 45.9938 15.8408 46.2371 16.0508 46.4243C16.2624 46.6099 16.5439 46.7026 16.8955 46.7026C17.2471 46.7026 17.5498 46.6074 17.8037 46.417L18.0039 46.6538H18.6924L18.1699 46.0361C18.375 45.7562 18.4775 45.3973 18.4775 44.9595H17.9624C17.9624 45.1987 17.9128 45.416 17.8135 45.6113L17.1274 44.8008L17.3691 44.625C17.54 44.5013 17.6629 44.3776 17.7378 44.2539C17.8127 44.1286 17.8501 43.9919 17.8501 43.8438C17.8501 43.6191 17.7671 43.4312 17.6011 43.2798C17.4367 43.1268 17.2251 43.0503 16.9663 43.0503C16.6798 43.0503 16.452 43.1317 16.2827 43.2944C16.1134 43.4556 16.0288 43.6753 16.0288 43.9536C16.0288 44.0675 16.0557 44.1855 16.1094 44.3076C16.1647 44.4297 16.2616 44.5778 16.3999 44.752C16.1362 44.9408 15.9596 45.1043 15.8701 45.2427ZM17.4741 46.0288C17.3 46.1623 17.1128 46.229 16.9126 46.229C16.7352 46.229 16.5936 46.1777 16.4878 46.0752C16.382 45.9727 16.3291 45.8392 16.3291 45.6748C16.3291 45.4844 16.4268 45.3151 16.6221 45.167L16.6978 45.1133L17.4741 46.0288ZM16.8369 44.4541C16.6693 44.2474 16.5854 44.0757 16.5854 43.939C16.5854 43.8201 16.6196 43.7217 16.688 43.6436C16.7563 43.5654 16.8483 43.5264 16.9639 43.5264C17.0713 43.5264 17.16 43.5597 17.23 43.6265C17.3 43.6916 17.335 43.7705 17.335 43.8633C17.335 44.0033 17.2845 44.118 17.1836 44.2075L17.1079 44.2686L16.8369 44.4541ZM22.623 46.3853C22.8672 46.172 23.0072 45.8758 23.043 45.4966H22.4277C22.3952 45.7505 22.3179 45.932 22.1958 46.041C22.0737 46.1501 21.8914 46.2046 21.6489 46.2046C21.3836 46.2046 21.1818 46.1037 21.0435 45.9019C20.9067 45.7 20.8384 45.4071 20.8384 45.0229V44.708C20.8416 44.3288 20.9149 44.0415 21.0581 43.8462C21.203 43.6493 21.4097 43.5508 21.6782 43.5508C21.9093 43.5508 22.0843 43.6077 22.2031 43.7217C22.3236 43.834 22.3984 44.0179 22.4277 44.2734H23.043C23.0039 43.8844 22.8647 43.5833 22.6255 43.3701C22.3862 43.1569 22.0705 43.0503 21.6782 43.0503C21.3869 43.0503 21.1297 43.1195 20.9067 43.2578C20.6854 43.3962 20.5153 43.5931 20.3965 43.8486C20.2777 44.1042 20.2183 44.3996 20.2183 44.7349V45.0669C20.2231 45.394 20.2842 45.6813 20.4014 45.9287C20.5186 46.1761 20.6846 46.3674 20.8994 46.5024C21.1159 46.6359 21.3657 46.7026 21.6489 46.7026C22.0542 46.7026 22.3789 46.5968 22.623 46.3853ZM26.2534 45.8872C26.3739 45.6235 26.4341 45.3175 26.4341 44.9692V44.7715C26.4325 44.4248 26.3706 44.1213 26.2485 43.8608C26.1265 43.5988 25.9531 43.3986 25.7285 43.2603C25.5055 43.1203 25.2492 43.0503 24.9595 43.0503C24.6698 43.0503 24.4126 43.1211 24.188 43.2627C23.965 43.4027 23.7917 43.6053 23.668 43.8706C23.5459 44.1359 23.4849 44.4419 23.4849 44.7886V44.9888C23.4865 45.3289 23.5483 45.6292 23.6704 45.8896C23.7941 46.1501 23.9683 46.3511 24.1929 46.4927C24.4191 46.6326 24.6763 46.7026 24.9644 46.7026C25.2557 46.7026 25.5129 46.6326 25.7358 46.4927C25.9604 46.3511 26.133 46.1493 26.2534 45.8872ZM25.5918 43.8779C25.7415 44.0879 25.8164 44.3898 25.8164 44.7837V44.9692C25.8164 45.3696 25.7423 45.674 25.5942 45.8823C25.4478 46.0907 25.2378 46.1948 24.9644 46.1948C24.6942 46.1948 24.4826 46.0882 24.3296 45.875C24.1782 45.6618 24.1025 45.3599 24.1025 44.9692V44.7642C24.1058 44.3817 24.1823 44.0863 24.332 43.8779C24.4834 43.668 24.6925 43.563 24.9595 43.563C25.2329 43.563 25.4437 43.668 25.5918 43.8779Z" />
    </symbol>
    <!-- company -->
    <symbol id="company-2">
      <path fill-rule="evenodd" clip-rule="evenodd" d="M17.1136 2.93452H16.977C16.7671 2.92181 16.5571 2.91672 16.3471 2.91163H16.3471H16.3269H15.8918C15.4946 2.91163 15.0898 2.92181 14.6876 2.94215C14.6573 2.93994 14.6269 2.93994 14.5966 2.94215C10.9522 3.14863 7.38171 4.05951 4.08049 5.62492L3.6479 5.83344V27.9746L4.65979 27.6313C5.54773 27.3261 6.49384 27.0515 7.47285 26.7972C10.1193 26.1178 12.8367 25.7567 15.568 25.7216V28.6306C15.2062 28.6332 14.8546 28.6434 14.503 28.6612H14.4195C12.3175 28.7765 10.2317 29.0967 8.19129 29.6173C5.60716 30.2643 3.11433 31.2357 0.771606 32.5086V4.11189C3.20469 2.69275 5.82533 1.62687 8.55557 0.945963C10.9527 0.327052 13.4169 0.00930695 15.8918 0H16.3193C16.8303 0.0127146 17.3287 0.0356008 17.7967 0.0712015C19.0297 0.157776 20.2528 0.352628 21.4521 0.653528V3.51685C20.2874 3.24551 19.1032 3.06695 17.9105 2.98284C17.8863 2.98079 17.8621 2.97872 17.8379 2.97666C17.5911 2.95561 17.344 2.93452 17.1136 2.93452ZM22.1528 5.86138C22.7877 5.9097 23.4455 5.93259 24.1108 5.93259C26.7125 5.92307 29.3031 5.59083 31.8239 4.94339C34.4068 4.29396 36.8986 3.32178 39.2411 2.04956V29.9402C36.8067 31.3585 34.1853 32.4243 31.4546 33.1061C29.0571 33.7227 26.5931 34.0395 24.1184 34.0496C22.2433 34.0647 20.3737 33.8443 18.553 33.3935V5.32229C18.983 5.42146 19.4257 5.51301 19.876 5.58929C20.6147 5.7139 21.3939 5.80544 22.1528 5.86138ZM36.3471 6.07753L35.3352 6.41828C34.4042 6.73106 33.4657 7.01078 32.5221 7.25998C29.7749 7.96596 26.9514 8.3281 24.1158 8.33818C23.4556 8.33818 22.8485 8.32038 22.2616 8.28224L21.4546 8.22883V28.3178V31.0057L22.1477 31.0667C22.7903 31.1227 23.4531 31.1506 24.1209 31.1506C26.3544 31.1412 28.5781 30.8533 30.7412 30.2937C32.5223 29.8469 34.2552 29.2243 35.9145 28.4348L36.3471 28.2263V6.07753Z" />
      <path d="M2.73713 42.2124C2.59166 42.0615 2.41629 41.943 2.22236 41.8646C2.02844 41.7862 1.82029 41.7496 1.61141 41.7572C1.38879 41.7542 1.16781 41.7957 0.961267 41.8793C0.771901 41.9547 0.599767 42.068 0.455322 42.2124C0.312451 42.3572 0.201292 42.5304 0.128988 42.721C0.0496792 42.9207 0.0101425 43.1341 0.0126205 43.3491V47.1431C0.00357283 47.4104 0.0545882 47.6764 0.161874 47.9212C0.251433 48.1156 0.380725 48.2889 0.541333 48.4298C0.692953 48.5575 0.870978 48.6495 1.06246 48.6994C1.24694 48.7512 1.43755 48.7777 1.62911 48.7782C1.84041 48.7803 2.04953 48.7351 2.24131 48.646C2.43095 48.563 2.60277 48.4438 2.74725 48.295C2.88814 48.1476 3.00052 47.9752 3.07865 47.7864C3.15973 47.5951 3.20105 47.3892 3.20007 47.1812V46.7566H2.20842V47.0948C2.21137 47.2103 2.1916 47.3252 2.15024 47.433C2.11794 47.5137 2.06877 47.5866 2.00604 47.6466C1.94461 47.6962 1.87416 47.7334 1.79861 47.7559C1.73164 47.7782 1.6617 47.7902 1.59117 47.7915C1.50263 47.8018 1.41296 47.7885 1.33122 47.7527C1.24948 47.717 1.17858 47.6602 1.1257 47.5881C1.03222 47.4356 0.986395 47.2585 0.994154 47.0795V43.5423C0.988002 43.3462 1.02969 43.1515 1.11558 42.9753C1.16706 42.8952 1.2399 42.8313 1.32578 42.7908C1.41166 42.7503 1.50713 42.7349 1.60129 42.7464C1.68676 42.7434 1.7717 42.7612 1.8488 42.7984C1.92591 42.8356 1.99289 42.8911 2.04399 42.96C2.15496 43.1057 2.21298 43.2852 2.20842 43.4686V43.7966H3.18995V43.4101C3.19195 43.1831 3.15073 42.9578 3.06853 42.7464C2.99527 42.5476 2.88251 42.3659 2.73713 42.2124Z" />
      <path d="M8.62892 42.1691C8.31271 41.9021 7.91362 41.7546 7.50066 41.7521C7.29868 41.7529 7.09838 41.7891 6.9087 41.8589C6.71613 41.9279 6.53841 42.0332 6.38505 42.1691C6.22076 42.3168 6.08968 42.498 6.00053 42.7006C5.90063 42.9323 5.85146 43.183 5.85634 43.4355V47.0744C5.8495 47.3304 5.89873 47.5847 6.00053 47.8195C6.09028 48.0151 6.22152 48.1887 6.38505 48.328C6.53665 48.4688 6.71468 48.5777 6.9087 48.6485C7.09838 48.7183 7.29868 48.7544 7.50066 48.7553C7.70269 48.7549 7.90307 48.7187 8.09262 48.6485C8.28995 48.5767 8.47195 48.468 8.62892 48.328C8.7871 48.1861 8.91454 48.013 9.00332 47.8195C9.10512 47.5847 9.15435 47.3304 9.14751 47.0744V43.4355C9.15239 43.183 9.10322 42.9323 9.00332 42.7006C8.91505 42.5001 8.78775 42.3194 8.62892 42.1691ZM8.16598 47.0744C8.17434 47.1714 8.16095 47.269 8.1268 47.3601C8.09265 47.4512 8.03861 47.5334 7.96866 47.6008C7.83768 47.7106 7.67251 47.7708 7.50193 47.7708C7.33135 47.7708 7.16617 47.7106 7.03519 47.6008C6.96524 47.5334 6.9112 47.4512 6.87705 47.3601C6.8429 47.269 6.82952 47.1714 6.83787 47.0744V43.4355C6.82952 43.3385 6.8429 43.2409 6.87705 43.1498C6.9112 43.0587 6.96524 42.9764 7.03519 42.9091C7.16617 42.7993 7.33135 42.7391 7.50193 42.7391C7.67251 42.7391 7.83768 42.7993 7.96866 42.9091C8.03861 42.9764 8.09265 43.0587 8.1268 43.1498C8.16095 43.2409 8.17434 43.3385 8.16598 43.4355V47.0744Z" />
      <path d="M16.3673 48.6994V41.8107H15.4136L14.1614 45.4572H14.1437L12.8813 41.8107H11.9377V48.6994H12.9218V44.5087H12.9395L13.9033 47.4712H14.3941L15.3655 44.5087H15.3832V48.6994H16.3673Z" />
      <path d="M21.9581 42.2937C21.8065 42.1237 21.6153 41.9943 21.4015 41.9173C21.1712 41.8424 20.9302 41.8063 20.6881 41.8105H19.226V48.6993H20.2075V46.0089H20.7134C21.0197 46.0228 21.3244 45.958 21.5988 45.8207C21.822 45.6968 22.0081 45.515 22.1377 45.2943C22.2512 45.1111 22.3277 44.9071 22.3628 44.6942C22.4014 44.435 22.4192 44.173 22.4159 43.911C22.4255 43.5802 22.3932 43.2495 22.3198 42.9269C22.2543 42.6885 22.1299 42.4706 21.9581 42.2937ZM21.4521 44.3941C21.4479 44.5188 21.4168 44.6412 21.361 44.7527C21.3049 44.8586 21.2162 44.9434 21.1081 44.9942C20.9627 45.0593 20.8041 45.0889 20.6451 45.0807H20.1974V42.7387H20.7033C20.8557 42.7312 21.0075 42.7609 21.146 42.8251C21.2475 42.8834 21.3281 42.9724 21.3762 43.0794C21.4299 43.2004 21.4591 43.331 21.4622 43.4634C21.4622 43.6084 21.4622 43.7609 21.4622 43.9211C21.4622 44.0813 21.4723 44.2466 21.4622 44.3941H21.4521Z" />
      <path d="M26.6077 41.8107H25.8032L24.2854 48.6994H25.2669L25.5553 47.2194H26.8935L27.1819 48.6994H28.1635L26.6077 41.8107ZM25.702 46.2811L26.1852 43.784H26.2029L26.6836 46.2811H25.702Z" />
      <path d="M32.9497 45.9607H32.932L31.4496 41.8107H30.506V48.6994H31.4875V44.557H31.5078L33.0079 48.6994H33.9312V41.8107H32.9497V45.9607Z" />
      <path d="M38.9476 41.8107L38.1583 44.5494H38.1381L37.3488 41.8107H36.3091L37.6574 45.7878V48.6994H38.639V45.7878L39.9873 41.8107H38.9476Z" />
      <path d="M0 50.6445H0.473058V51.9719H0.794333V50.6445H1.26486V50.3724H0V50.6445Z" />
      <path d="M3.97672 50.3724L3.35693 51.9719H3.69845L3.82999 51.6083H4.46748L4.60409 51.9719H4.95319L4.31823 50.3724H3.97672ZM3.92612 51.3387L4.14368 50.7462L4.36123 51.3387H3.92612Z" />
      <path d="M7.90793 51.3821H8.27727V51.5881C8.16941 51.6746 8.03576 51.722 7.89781 51.7229C7.8333 51.7265 7.76886 51.7145 7.70988 51.688C7.65091 51.6614 7.59911 51.6211 7.55883 51.5703C7.47402 51.4485 7.43217 51.3017 7.43993 51.1533C7.43993 50.7973 7.59424 50.6193 7.90034 50.6193C7.98091 50.6112 8.06168 50.6325 8.12804 50.6791C8.19439 50.7257 8.24194 50.7947 8.26209 50.8735L8.57831 50.8125C8.51001 50.4997 8.28486 50.3421 7.90034 50.3421C7.69468 50.3366 7.4947 50.4103 7.34127 50.5481C7.26069 50.6276 7.19834 50.7239 7.15858 50.8302C7.11882 50.9365 7.10261 51.0502 7.11107 51.1634C7.10175 51.3823 7.17493 51.5966 7.31598 51.7636C7.39434 51.8444 7.4892 51.9071 7.59401 51.9475C7.69883 51.9879 7.8111 52.0049 7.92311 51.9975C8.17338 52.0045 8.41652 51.9133 8.60108 51.7432V51.1126H7.90793V51.3821Z" />
      <path d="M11.9226 50.3724H11.5988V51.9719H12.7194V51.6998H11.9226V50.3724Z" />
      <path d="M15.3175 50.3724H14.9937V51.9719H15.3175V50.3724Z" />
      <path d="M18.6365 51.4405L17.9813 50.3724H17.6676V51.9719H17.9686V50.9268L18.6112 51.9719H18.9325V50.3724H18.6365V51.4405Z" />
      <path d="M21.6368 51.2675H22.4337V50.9954H21.6368V50.6445H22.4944V50.3724H21.313V51.9719H22.5273V51.6998H21.6368V51.2675Z" />
      <path d="M28.9122 51.0031H28.2823V50.3724H27.9611V51.9719H28.2823V51.2726H28.9122V51.9719H29.2335V50.3724H28.9122V51.0031Z" />
      <path d="M31.9302 51.2675H32.7296V50.9954H31.9302V50.6445H32.7903V50.3724H31.6089V51.9719H32.8206V51.6998H31.9302V51.2675Z" />
      <path d="M36.0233 51.2676C36.3015 51.2244 36.4432 51.0769 36.4432 50.8226C36.4513 50.7546 36.441 50.6856 36.4134 50.623C36.3858 50.5603 36.3419 50.5063 36.2863 50.4666C36.1415 50.3938 35.9799 50.3614 35.8183 50.3725H35.1404V51.972H35.4617V51.3032H35.5249C35.5934 51.299 35.6619 51.3112 35.7247 51.3388C35.7717 51.3678 35.8108 51.4079 35.8386 51.4558L36.1877 51.9644H36.5722L36.3774 51.6516C36.2913 51.4972 36.1699 51.3656 36.0233 51.2676ZM35.6994 51.0464H35.4617V50.6446H35.7146C35.8248 50.6357 35.9357 50.6486 36.041 50.6827C36.0644 50.7034 36.0828 50.7291 36.095 50.7579C36.1072 50.7867 36.1127 50.8179 36.1113 50.8492C36.1098 50.8804 36.1014 50.911 36.0866 50.9385C36.0718 50.966 36.051 50.9899 36.0258 51.0082C35.9202 51.0406 35.8096 51.0535 35.6994 51.0464Z" />
      <path d="M39.1096 51.2675H39.9064V50.9954H39.1096V50.6445H39.9697V50.3724H38.7858V51.9719H40V51.6998H39.1096V51.2675Z" />

    </symbol>
    <!-- company -->
    <symbol id="company-3">
      <path d="M7.40628 41.1014C7.42219 41.1018 7.43786 41.1049 7.45238 41.1106C7.46689 41.1163 7.47995 41.1245 7.4908 41.1346L7.70892 41.3431C7.53961 41.5118 7.33035 41.6468 7.09546 41.7388C6.82039 41.8391 6.52394 41.8875 6.22572 41.8809C5.94548 41.8859 5.66705 41.8408 5.40777 41.7482C5.17389 41.6632 4.96376 41.5356 4.79159 41.3739C4.61588 41.2062 4.48054 41.0096 4.39353 40.7958C4.29824 40.5574 4.25119 40.3065 4.25448 40.0542C4.25061 39.8003 4.30147 39.548 4.40443 39.3103C4.49968 39.0951 4.64335 38.8986 4.82704 38.7322C5.01321 38.5691 5.23592 38.4408 5.48139 38.3555C5.74992 38.265 6.03588 38.22 6.32387 38.2228C6.59138 38.2172 6.85747 38.2582 7.10637 38.3436C7.32231 38.425 7.52058 38.538 7.69256 38.6777L7.50988 38.9004C7.49726 38.9161 7.48158 38.9297 7.46353 38.9407C7.44198 38.9535 7.41593 38.9594 7.38992 38.9573C7.36162 38.9556 7.33434 38.9474 7.31085 38.9336L7.2127 38.8743L7.07637 38.7985C7.01753 38.7704 6.95649 38.7458 6.8937 38.7251C6.81283 38.6999 6.72989 38.6801 6.64559 38.6659C6.5386 38.6487 6.42992 38.6408 6.32114 38.6422C6.11376 38.6399 5.90796 38.6737 5.71587 38.7417C5.53672 38.8046 5.37501 38.8999 5.24146 39.0212C5.10551 39.1503 5.00074 39.3018 4.93337 39.4667C4.85658 39.6553 4.81874 39.8542 4.82158 40.0542C4.81831 40.2574 4.85615 40.4595 4.93337 40.6513C4.9999 40.8147 5.10272 40.9653 5.23601 41.0943C5.36088 41.2146 5.51567 41.3086 5.6886 41.3692C5.86657 41.4333 6.0576 41.4655 6.25025 41.4639C6.36154 41.4654 6.47278 41.4591 6.58288 41.445C6.76267 41.4259 6.93513 41.3716 7.08728 41.2862C7.16359 41.2425 7.23563 41.1934 7.30267 41.1393C7.3307 41.1161 7.36756 41.1026 7.40628 41.1014Z" />
      <path d="M13.7044 40.0538C13.7078 40.3052 13.6579 40.5549 13.5572 40.7906C13.4684 41.0043 13.3284 41.1993 13.1465 41.3626C12.9646 41.526 12.745 41.654 12.5021 41.7382C11.9683 41.9151 11.3782 41.9151 10.8444 41.7382C10.603 41.6527 10.3848 41.5244 10.2037 41.3615C10.0219 41.1952 9.88095 40.9986 9.78927 40.7835C9.59287 40.3063 9.59287 39.7847 9.78927 39.3076C9.88228 39.0923 10.0231 38.8951 10.2037 38.7271C10.3864 38.5694 10.6045 38.446 10.8444 38.3647C11.3775 38.1846 11.969 38.1846 12.5021 38.3647C12.7443 38.4502 12.9634 38.5784 13.1455 38.7414C13.325 38.906 13.465 39.1001 13.5572 39.3123C13.6582 39.5495 13.7081 39.8009 13.7044 40.0538ZM13.1319 40.0538C13.1362 39.8527 13.1011 39.6525 13.0283 39.4615C12.9672 39.298 12.8679 39.1472 12.7366 39.0185C12.6087 38.8968 12.4513 38.8013 12.2758 38.739C11.8879 38.6095 11.4586 38.6095 11.0707 38.739C10.8952 38.8013 10.7378 38.8968 10.6099 39.0185C10.4768 39.1464 10.3764 39.2974 10.3155 39.4615C10.1768 39.8472 10.1768 40.2604 10.3155 40.6461C10.377 40.81 10.4773 40.9609 10.6099 41.0891C10.7379 41.2101 10.8953 41.3048 11.0707 41.3663C11.4593 41.4925 11.8872 41.4925 12.2758 41.3663C12.4512 41.3048 12.6086 41.2101 12.7366 41.0891C12.8673 40.9601 12.9665 40.8094 13.0283 40.6461C13.1015 40.4552 13.1365 40.2549 13.1319 40.0538Z" />
      <path d="M18.0013 40.6748L18.0586 40.8074C18.0804 40.76 18.0995 40.7174 18.1213 40.6748C18.1421 40.6302 18.1657 40.5867 18.1922 40.5445L19.5854 38.3439C19.6127 38.306 19.6372 38.2823 19.6645 38.2752C19.7015 38.2654 19.7403 38.2614 19.779 38.2634H20.1907V41.8426H19.7026V39.2109C19.7026 39.1777 19.7026 39.1398 19.7026 39.0995C19.7 39.0585 19.7 39.0174 19.7026 38.9764L18.3012 41.2077C18.2834 41.2412 18.255 41.2694 18.2192 41.2892C18.1834 41.3089 18.1418 41.3193 18.0995 41.3191H18.0204C17.9779 41.3196 17.9362 41.3093 17.9004 41.2896C17.8646 41.2698 17.8362 41.2413 17.8186 41.2077L16.3763 38.9622C16.3763 39.0048 16.3763 39.0474 16.3763 39.0901C16.3763 39.1327 16.3763 39.1706 16.3763 39.2038V41.8355H15.9047V38.2634H16.3164C16.355 38.2614 16.3938 38.2654 16.4309 38.2752C16.4647 38.2898 16.4916 38.314 16.5072 38.3439L17.9304 40.5469C17.9584 40.5876 17.9821 40.6304 18.0013 40.6748Z" />
      <path d="M23.2444 40.4969V41.8376H22.6991V38.2632H23.9151C24.1446 38.2594 24.3735 38.2858 24.594 38.3414C24.7705 38.3849 24.9341 38.4608 25.0739 38.5641C25.195 38.6609 25.2883 38.7809 25.3465 38.9146C25.4109 39.0604 25.4423 39.2157 25.4392 39.3718C25.4416 39.5285 25.4073 39.6841 25.3383 39.829C25.2728 39.9661 25.1721 40.0884 25.0439 40.1866C24.904 40.2942 24.7395 40.3749 24.5613 40.4235C24.349 40.4824 24.127 40.5104 23.9042 40.5064L23.2444 40.4969ZM23.2444 40.1132H23.9042C24.0475 40.1148 24.1902 40.0964 24.3268 40.0587C24.4395 40.0258 24.5433 39.9734 24.6322 39.9048C24.7141 39.8392 24.7775 39.7582 24.8176 39.6679C24.8622 39.5724 24.8844 39.4701 24.883 39.3671C24.8893 39.2677 24.8707 39.1683 24.8283 39.0759C24.7859 38.9834 24.7208 38.9001 24.6376 38.8317C24.4293 38.6904 24.1677 38.622 23.9042 38.6399H23.2444V40.1132Z" />
      <path d="M30.5731 41.8424H30.1423C30.0991 41.8439 30.0566 41.8322 30.0223 41.8093C29.9914 41.787 29.9671 41.7585 29.9514 41.7264L29.5806 40.8617H27.7185L27.334 41.7264C27.3199 41.758 27.2964 41.7858 27.2659 41.8069C27.2312 41.8312 27.1877 41.8438 27.1432 41.8424H26.7124L28.3483 38.2629H28.9154L30.5731 41.8424ZM27.8739 40.5134H29.4116L28.7627 39.0565C28.7131 38.9469 28.6721 38.8345 28.64 38.7201L28.5773 38.9072C28.5582 38.9641 28.5364 39.0162 28.5173 39.0589L27.8739 40.5134Z" />
      <path d="M32.9288 38.2795C32.9614 38.2951 32.9894 38.317 33.0106 38.3435L35.3962 41.0418C35.3962 40.9991 35.3962 40.9565 35.3962 40.9162C35.3962 40.8759 35.3962 40.8357 35.3962 40.7978V38.263H35.8843V41.8425H35.6116C35.5729 41.8435 35.5345 41.8362 35.4998 41.8212C35.4662 41.8041 35.4365 41.7816 35.4126 41.7548L33.0297 39.0589C33.0323 39.1 33.0323 39.1411 33.0297 39.1821C33.0297 39.2224 33.0297 39.2579 33.0297 39.2911V41.8425H32.5416V38.263H32.8306C32.8644 38.2621 32.8979 38.2678 32.9288 38.2795Z" />
      <path d="M39.9031 40.4189V41.8402H39.3578V40.4189L37.8501 38.2631H38.3381C38.3802 38.2609 38.4218 38.2719 38.4554 38.2939C38.4851 38.3169 38.51 38.3441 38.529 38.3745L39.4724 39.765C39.5105 39.8243 39.5432 39.8787 39.5705 39.9309C39.5978 39.983 39.6196 40.0327 39.6387 40.0825L39.7096 39.9285C39.736 39.8722 39.767 39.8176 39.8023 39.765L40.732 38.365C40.7516 38.337 40.7754 38.3115 40.8029 38.2892C40.8352 38.2646 40.8772 38.2519 40.9201 38.2536H41.4136L39.9031 40.4189Z" />
      <path d="M17.7314 32.2561C17.9686 32.2822 18.2086 32.3035 18.4512 32.3225C22.1301 30.8926 25.2422 28.5523 27.3987 25.5942C29.5552 22.636 30.6603 19.1912 30.5759 15.6904L26.5216 12.1678C27.346 15.8951 26.9604 19.7482 25.408 23.2959C23.8555 26.8437 21.1976 29.9461 17.7314 32.2561Z" />
      <path d="M16.2837 32.0923L16.3928 32.1112C20.0966 29.8094 22.9205 26.5951 24.4993 22.8839C26.078 19.1727 26.3389 15.1353 25.2483 11.2939L19.4737 6.27673C21.8094 10.4008 22.7495 15.0162 22.1848 19.5862C21.6201 24.1562 19.5737 28.493 16.2837 32.0923Z" />
      <path d="M35.868 19.8266C34.8869 23.6732 32.5042 27.1423 29.0736 29.7189C28.0717 30.4756 26.991 31.1497 25.8455 31.7325C28.6389 31.0191 31.2065 29.7579 33.3503 28.046C35.494 26.3342 37.1567 24.2175 38.21 21.8591L35.868 19.8266Z" />
      <path d="M34.949 19.2602L31.6146 16.363C31.5508 19.6661 30.47 22.8941 28.4845 25.7115C26.499 28.5289 23.6813 30.8328 20.3242 32.3838H20.3406C21.0887 32.3836 21.8362 32.3448 22.579 32.2678C25.7164 31.1552 28.488 29.385 30.6464 27.1153C32.8049 24.8456 34.283 22.147 34.949 19.2602Z" />
      <path d="M16.7663 4.16097L12.7883 0.700012C9.23222 1.89397 6.1738 3.99289 4.01337 6.72209C1.85294 9.45128 0.69115 12.6836 0.680054 15.996H0.680054C0.693382 19.656 2.11126 23.2077 4.70929 26.0889C7.30731 28.97 10.9371 31.016 15.0241 31.9031C18.6725 28.041 20.8086 23.2688 21.1219 18.2798C21.4352 13.2908 19.9094 8.34501 16.7663 4.16097Z" />
      <path d="M44.1401 18.7274C44.1257 14.3849 42.1339 10.2238 38.5997 7.15324C35.0656 4.08263 30.2764 2.35205 25.2784 2.33955C22.9688 2.33747 20.6789 2.70775 18.5249 3.4316L42.8805 24.5927C43.7144 22.7221 44.1415 20.7334 44.1401 18.7274Z" />
    </symbol>
    <!-- company -->
    <symbol id="company-4">
      <path d="M13.1462 13.1029H13.1433C10.7453 13.1029 8.80127 14.8305 8.80127 16.9616V16.9641C8.80127 19.0952 10.7453 20.8228 13.1433 20.8228H13.1462C15.5442 20.8228 17.4882 19.0952 17.4882 16.9641V16.9616C17.4882 14.8305 15.5442 13.1029 13.1462 13.1029Z" />
      <path d="M45.195 11.8693C45.1882 8.90935 43.8623 6.07229 41.5074 3.97901C39.1525 1.88574 35.9604 0.706733 32.6297 0.700012V0.700012C29.298 0.705389 26.1045 1.8838 23.7484 3.97722C21.3922 6.07064 20.0655 8.90847 20.0587 11.8693V28.1922C20.0587 28.1922 45.1922 25.7045 45.195 11.8719V11.8693Z" />
      <path d="M0 33.5495C0.00604098 35.6091 0.929149 37.5829 2.56761 39.0395C4.20607 40.4961 6.42668 41.3171 8.74418 41.3231C11.0612 41.3171 13.2814 40.4964 14.9197 39.0404C16.5581 37.5843 17.4816 35.6112 17.4884 33.5521V22.1944C17.4884 22.1944 0 23.9267 0 33.5495ZM8.74418 35.5845C8.2913 35.5845 7.84859 35.4652 7.47203 35.2415C7.09548 35.0179 6.80199 34.7001 6.62868 34.3283C6.45537 33.9564 6.41002 33.5473 6.49838 33.1525C6.58673 32.7578 6.80481 32.3952 7.12505 32.1106C7.44528 31.826 7.85328 31.6322 8.29746 31.5537C8.74164 31.4751 9.20204 31.5154 9.62045 31.6695C10.0389 31.8235 10.3965 32.0843 10.6481 32.419C10.8997 32.7536 11.034 33.1471 11.034 33.5495C11.0351 33.8174 10.9767 34.0828 10.8622 34.3306C10.7476 34.5784 10.5791 34.8036 10.3664 34.9934C10.1536 35.1832 9.90081 35.3338 9.62244 35.4365C9.34406 35.5392 9.04561 35.5921 8.74418 35.5921V35.5845Z" />
      <path d="M26.4177 34.4638H24.7302V36.207H23.8513V31.9413H26.6286V32.6533H24.7302V33.7548H26.4177V34.4638ZM30.6423 34.1708C30.6423 34.5908 30.5681 34.9589 30.4196 35.2753C30.2712 35.5917 30.0583 35.8359 29.7809 36.0078C29.5056 36.1796 29.1891 36.2656 28.8317 36.2656C28.4782 36.2656 28.1628 36.1806 27.8854 36.0107C27.6081 35.8408 27.3932 35.5986 27.2409 35.2841C27.0886 34.9677 27.0114 34.6044 27.0095 34.1943V33.9833C27.0095 33.5634 27.0847 33.1943 27.235 32.8759C27.3874 32.5556 27.6013 32.3105 27.8766 32.1406C28.154 31.9687 28.4704 31.8828 28.8259 31.8828C29.1813 31.8828 29.4968 31.9687 29.7722 32.1406C30.0495 32.3105 30.2634 32.5556 30.4138 32.8759C30.5661 33.1943 30.6423 33.5624 30.6423 33.9804V34.1708ZM29.7516 33.9775C29.7516 33.5302 29.6716 33.1904 29.5114 32.9579C29.3513 32.7255 29.1227 32.6093 28.8259 32.6093C28.5309 32.6093 28.3034 32.7245 28.1432 32.955C27.9831 33.1835 27.902 33.5195 27.9001 33.9628V34.1708C27.9001 34.6064 27.9802 34.9443 28.1403 35.1845C28.3005 35.4247 28.5309 35.5449 28.8317 35.5449C29.1266 35.5449 29.3532 35.4296 29.5114 35.1992C29.6696 34.9667 29.7497 34.6288 29.7516 34.1855V33.9775ZM33.4929 35.0878C33.4929 34.9218 33.4343 34.7949 33.3171 34.707C33.1999 34.6171 32.989 34.5234 32.6843 34.4257C32.3796 34.3261 32.1384 34.2285 31.9606 34.1328C31.4763 33.871 31.2341 33.5185 31.2341 33.0751C31.2341 32.8447 31.2985 32.6396 31.4274 32.4599C31.5583 32.2783 31.7448 32.1367 31.987 32.0351C32.2311 31.9335 32.5046 31.8828 32.8073 31.8828C33.112 31.8828 33.3835 31.9384 33.6218 32.0497C33.86 32.1591 34.0446 32.3144 34.1755 32.5156C34.3083 32.7167 34.3747 32.9453 34.3747 33.2011H33.4958C33.4958 33.0058 33.4343 32.8544 33.3112 32.747C33.1882 32.6376 33.0153 32.5829 32.7927 32.5829C32.5778 32.5829 32.4108 32.6288 32.2917 32.7206C32.1725 32.8105 32.113 32.9296 32.113 33.0781C32.113 33.2167 32.1823 33.3329 32.321 33.4267C32.4616 33.5204 32.6677 33.6083 32.9391 33.6904C33.4391 33.8408 33.8034 34.0273 34.0319 34.2499C34.2604 34.4726 34.3747 34.7499 34.3747 35.082C34.3747 35.4511 34.235 35.7411 33.9557 35.9521C33.6765 36.1611 33.3005 36.2656 32.8278 36.2656C32.4997 36.2656 32.2009 36.206 31.9313 36.0869C31.6618 35.9658 31.4557 35.8007 31.3132 35.5917C31.1725 35.3828 31.1022 35.1406 31.1022 34.8652H31.9841C31.9841 35.3359 32.2653 35.5712 32.8278 35.5712C33.0368 35.5712 33.1999 35.5292 33.3171 35.4453C33.4343 35.3593 33.4929 35.2402 33.4929 35.0878ZM38.1833 32.6533H36.8766V36.207H35.9977V32.6533H34.7087V31.9413H38.1833V32.6533ZM41.2536 34.3583H39.5661V35.5009H41.5466V36.207H38.6872V31.9413H41.5407V32.6533H39.5661V33.6699H41.2536V34.3583ZM43.6413 34.6454H42.9411V36.207H42.0622V31.9413H43.6472C44.1511 31.9413 44.5397 32.0536 44.8132 32.2783C45.0866 32.5029 45.2233 32.8203 45.2233 33.2304C45.2233 33.5214 45.1599 33.7646 45.0329 33.9599C44.9079 34.1533 44.7175 34.3076 44.4616 34.4228L45.3845 36.166V36.207H44.4411L43.6413 34.6454ZM42.9411 33.9335H43.6501C43.8708 33.9335 44.0417 33.8779 44.1628 33.7665C44.2839 33.6533 44.3444 33.498 44.3444 33.3007C44.3444 33.0995 44.2868 32.9413 44.1716 32.8261C44.0583 32.7109 43.8835 32.6533 43.6472 32.6533H42.9411V33.9335ZM48.2673 34.704V36.207H47.3884V31.9413H49.0524C49.3727 31.9413 49.654 31.9999 49.8962 32.1171C50.1403 32.2343 50.3278 32.4013 50.4587 32.6181C50.5895 32.8329 50.655 33.0781 50.655 33.3535C50.655 33.7714 50.5114 34.1015 50.2243 34.3437C49.9391 34.5839 49.5436 34.704 49.0378 34.704H48.2673ZM48.2673 33.9921H49.0524C49.2849 33.9921 49.4616 33.9374 49.5827 33.8281C49.7057 33.7187 49.7673 33.5624 49.7673 33.3593C49.7673 33.1503 49.7057 32.9814 49.5827 32.8525C49.4597 32.7236 49.2897 32.6572 49.0729 32.6533H48.2673V33.9921ZM53.8278 34.3583H52.1403V35.5009H54.1208V36.207H51.2614V31.9413H54.1149V32.6533H52.1403V33.6699H53.8278V34.3583ZM57.9059 32.6533H56.5993V36.207H55.7204V32.6533H54.4313V31.9413H57.9059V32.6533ZM60.9763 34.3583H59.2888V35.5009H61.2692V36.207H58.4099V31.9413H61.2634V32.6533H59.2888V33.6699H60.9763V34.3583ZM63.364 34.6454H62.6638V36.207H61.7849V31.9413H63.3698C63.8737 31.9413 64.2624 32.0536 64.5358 32.2783C64.8093 32.5029 64.946 32.8203 64.946 33.2304C64.946 33.5214 64.8825 33.7646 64.7556 33.9599C64.6306 34.1533 64.4401 34.3076 64.1843 34.4228L65.1071 36.166V36.207H64.1638L63.364 34.6454ZM62.6638 33.9335H63.3727C63.5934 33.9335 63.7643 33.8779 63.8854 33.7665C64.0065 33.6533 64.0671 33.498 64.0671 33.3007C64.0671 33.0995 64.0095 32.9413 63.8942 32.8261C63.7809 32.7109 63.6061 32.6533 63.3698 32.6533H62.6638V33.9335ZM67.8288 35.0878C67.8288 34.9218 67.7702 34.7949 67.653 34.707C67.5358 34.6171 67.3249 34.5234 67.0202 34.4257C66.7155 34.3261 66.4743 34.2285 66.2966 34.1328C65.8122 33.871 65.57 33.5185 65.57 33.0751C65.57 32.8447 65.6345 32.6396 65.7634 32.4599C65.8942 32.2783 66.0807 32.1367 66.3229 32.0351C66.5671 31.9335 66.8405 31.8828 67.1432 31.8828C67.4479 31.8828 67.7194 31.9384 67.9577 32.0497C68.196 32.1591 68.3806 32.3144 68.5114 32.5156C68.6442 32.7167 68.7106 32.9453 68.7106 33.2011H67.8317C67.8317 33.0058 67.7702 32.8544 67.6472 32.747C67.5241 32.6376 67.3513 32.5829 67.1286 32.5829C66.9138 32.5829 66.7468 32.6288 66.6276 32.7206C66.5085 32.8105 66.4489 32.9296 66.4489 33.0781C66.4489 33.2167 66.5182 33.3329 66.6569 33.4267C66.7975 33.5204 67.0036 33.6083 67.2751 33.6904C67.7751 33.8408 68.1393 34.0273 68.3679 34.2499C68.5964 34.4726 68.7106 34.7499 68.7106 35.082C68.7106 35.4511 68.571 35.7411 68.2917 35.9521C68.0124 36.1611 67.6364 36.2656 67.1638 36.2656C66.8356 36.2656 66.5368 36.206 66.2673 36.0869C65.9977 35.9658 65.7917 35.8007 65.6491 35.5917C65.5085 35.3828 65.4382 35.1406 65.4382 34.8652H66.32C66.32 35.3359 66.6013 35.5712 67.1638 35.5712C67.3727 35.5712 67.5358 35.5292 67.653 35.4453C67.7702 35.3593 67.8288 35.2402 67.8288 35.0878Z" />
    </symbol> 
    <!-- company -->
    <symbol id="company-5">
      <path d="M4.7569 38.7352C5.00058 39.0113 5.13038 39.3572 5.12358 39.7121C5.13601 39.9437 5.0914 40.1748 4.99304 40.3884C4.89469 40.6021 4.74511 40.7927 4.55539 40.9462C4.08201 41.2735 3.49555 41.4336 2.90369 41.3969H0V35.2054H2.84423C3.40566 35.1712 3.96263 35.3166 4.41995 35.6168C4.60363 35.7575 4.74908 35.9354 4.84482 36.1365C4.94055 36.3375 4.98396 36.5562 4.97162 36.7752C4.98831 37.1167 4.87115 37.4525 4.64128 37.7219C4.42059 37.9679 4.1156 38.1385 3.77579 38.2059C4.16101 38.2702 4.50873 38.4578 4.7569 38.7352ZM1.35109 37.8006H2.56674C2.84303 37.8193 3.11743 37.7463 3.33974 37.5949C3.43101 37.5191 3.50203 37.4252 3.54728 37.3203C3.59254 37.2154 3.61082 37.1024 3.60071 36.99C3.60929 36.8779 3.59063 36.7656 3.54607 36.661C3.50151 36.5564 3.43217 36.4621 3.34304 36.385C3.11408 36.2294 2.83115 36.1552 2.54692 36.1763H1.35109V37.8006ZM3.45866 40.1749C3.55623 40.0974 3.63292 40.0003 3.68277 39.8911C3.73262 39.782 3.75428 39.6638 3.74606 39.5458C3.7535 39.4264 3.73085 39.307 3.67988 39.1968C3.6289 39.0867 3.55095 38.9888 3.45205 38.9106C3.21421 38.7492 2.9217 38.6699 2.6262 38.6868H1.35109V40.3897H2.64272C2.93345 40.405 3.22122 40.3293 3.45866 40.1749Z" />
      <path d="M10.5709 41.3969L8.98857 38.9772H8.39396V41.3969H7.03296V35.2054H9.60961C10.2591 35.1639 10.9012 35.3523 11.4034 35.7317C11.7635 36.0677 11.9808 36.5105 12.0159 36.9803C12.051 37.45 11.9018 37.9157 11.595 38.2936C11.2771 38.6271 10.8428 38.8494 10.3661 38.9227L12.0508 41.3969H10.5709ZM8.39396 38.1333H9.50721C10.2802 38.1333 10.6667 37.8207 10.6667 37.1956C10.6746 37.068 10.6534 36.9402 10.6045 36.8205C10.5556 36.7007 10.48 36.5916 10.3826 36.5C10.1383 36.314 9.82374 36.2237 9.50721 36.2489H8.38075L8.39396 38.1333Z" />
      <path d="M18.0102 40.1506H15.2981L14.8191 41.3967H13.392L15.8828 35.2748H17.4255L19.9063 41.3967H18.4793L18.0102 40.1506ZM17.6468 39.2129L16.6558 36.5996L15.6648 39.2129H17.6468Z" />
      <path d="M27.3224 41.3968H25.9713L22.9421 37.1865V41.3968H21.5943V35.2053H22.9421L25.9713 39.4398V35.2053H27.3224V41.3968Z" />
      <path d="M35.0326 39.9148C34.7532 40.3823 34.3276 40.7625 33.8103 41.0067C33.2222 41.2787 32.5695 41.4128 31.9109 41.3969H29.506V35.2054H31.9109C32.5684 35.1897 33.2202 35.3205 33.8103 35.5865C34.3275 35.8252 34.7536 36.2016 35.0326 36.6663C35.3107 37.1699 35.4556 37.7263 35.4556 38.2906C35.4556 38.8549 35.3107 39.4112 35.0326 39.9148ZM33.4866 39.7666C33.8722 39.3553 34.0842 38.8311 34.0842 38.2891C34.0842 37.747 33.8722 37.2228 33.4866 36.8115C33.0205 36.439 32.4127 36.2498 31.7952 36.2852H30.8571V40.2929H31.7952C32.4127 40.3283 33.0205 40.1392 33.4866 39.7666Z" />
      <path d="M18.8558 0.766663C18.8558 0.766663 36.2945 6.7948 35.9245 15.5179V30.2722C35.9245 30.2722 18.4991 24.241 18.8624 15.5179L18.8558 0.766663Z" />
      <path d="M51.4603 26.8179C54.7538 24.7427 58.5633 23.4573 62.5399 23.0795V18.4608C57.9579 20.0778 54.0709 23.0097 51.4603 26.8179Z" />
      <path d="M49.4816 28.2094C52.1773 23.2395 56.8505 19.4045 62.54 17.493V4.18457C62.54 4.18457 37.705 12.7716 38.2303 25.1938V46.2C38.2303 46.2 39.3369 45.8159 41.0778 45.096C41.0778 44.4246 41.0778 43.747 41.1571 43.0665C41.6711 37.2995 44.6654 31.9554 49.4816 28.2094Z" />
      <path d="M47.1197 36.013C47.2502 34.5561 47.5413 33.1151 47.9885 31.7119C44.9896 34.947 43.1734 38.9613 42.7956 43.1905C42.7592 43.5897 42.7394 43.989 42.7295 44.4003C44.14 43.7803 45.7818 43.006 47.5062 42.0956C47.0662 40.0947 46.936 38.0471 47.1197 36.013Z" />
      <path d="M48.1075 36.0886C47.9421 37.9289 48.0454 39.7812 48.4147 41.5965C55.1999 37.8792 62.8241 32.1354 62.5301 25.1938V24.5889C57.6824 25.0855 53.1468 27.0259 49.6204 30.1119C48.7948 32.0243 48.2849 34.0386 48.1075 36.0886Z" />
    </symbol>
    <!-- company -->
    <symbol id="company-6">
      <path d="M47.425 21.4082C46.9819 20.8184 46.7699 20.1213 46.8203 19.4196V16.5364C46.8203 15.6526 47.0207 14.9809 47.4216 14.5214C47.8224 14.0619 48.511 13.8331 49.4871 13.8351C50.4044 13.8351 51.0555 14.0306 51.4405 14.4217C51.8605 14.9207 52.0648 15.5309 52.018 16.1463V16.8239H50.3772V16.1375C50.383 15.9129 50.3671 15.6882 50.3296 15.4659C50.306 15.3138 50.2234 15.1732 50.0952 15.067C49.9267 14.9525 49.7145 14.897 49.5007 14.9115C49.2759 14.897 49.0529 14.9556 48.8756 15.0758C48.7327 15.1935 48.6374 15.3477 48.6038 15.5157C48.5567 15.7511 48.5351 15.9897 48.5393 16.2285V19.7276C48.5134 20.0652 48.5858 20.403 48.7499 20.7102C48.8315 20.8141 48.9448 20.8965 49.0774 20.9483C49.2099 21.0001 49.3564 21.0192 49.5007 21.0035C49.7109 21.0184 49.9195 20.9615 50.0816 20.8451C50.2153 20.7305 50.3013 20.581 50.3262 20.4198C50.3645 20.1877 50.3816 19.9533 50.3772 19.7188V19.009H52.018V19.6572C52.0641 20.2988 51.8648 20.9356 51.4507 21.4698C51.0736 21.8981 50.4315 22.1122 49.4871 22.1122C48.5427 22.1122 47.8292 21.8834 47.425 21.4082Z" />
      <path d="M54.2569 21.4376C53.8424 20.9888 53.6352 20.3347 53.6352 19.4695V16.4367C53.6352 15.5803 53.8424 14.9321 54.2569 14.4921C54.6713 14.0521 55.3644 13.8331 56.3359 13.8351C57.3007 13.8351 57.9904 14.0541 58.4048 14.4921C58.8193 14.9321 59.0299 15.5803 59.0299 16.4367V19.4695C59.0299 20.3259 58.8193 20.9829 58.398 21.4346C57.9768 21.8863 57.2906 22.1122 56.3359 22.1122C55.3813 22.1122 54.6747 21.8834 54.2569 21.4376ZM57.1003 20.7102C57.2487 20.4291 57.3163 20.1212 57.2974 19.8127V16.0994C57.3164 15.7969 57.2499 15.4949 57.1037 15.2195C57.0205 15.1134 56.9043 15.0296 56.7686 14.9777C56.6328 14.9259 56.4829 14.908 56.3359 14.9262C56.1885 14.9085 56.0383 14.9265 55.9021 14.9783C55.7659 15.0301 55.6491 15.1136 55.5648 15.2195C55.4154 15.4941 55.3477 15.7965 55.3678 16.0994V19.8303C55.3471 20.1389 55.4148 20.4471 55.5648 20.7278C55.6604 20.8224 55.7785 20.8982 55.9109 20.9502C56.0433 21.0021 56.1871 21.029 56.3326 21.029C56.478 21.029 56.6218 21.0021 56.7542 20.9502C56.8866 20.8982 57.0047 20.8224 57.1003 20.7278V20.7102Z" />
      <path d="M61.0035 13.9236H62.7701L64.0984 19.5192L65.4573 13.9236H67.1763L67.3496 22.0003H66.079L65.9431 16.3871L64.6318 22.0003H63.6126L62.2537 16.3665L62.128 22.0003H60.8439L61.0035 13.9236Z" />
      <path d="M69.3302 13.9236H72.0819C73.6673 13.9236 74.4599 14.688 74.4599 16.217C74.4599 17.6814 73.6254 18.4126 71.9562 18.4106H71.0186V22.0003H69.32L69.3302 13.9236ZM71.6811 17.3754C71.8489 17.3938 72.0193 17.3805 72.1806 17.3364C72.3419 17.2924 72.4902 17.2186 72.6153 17.1203C72.8101 16.8475 72.896 16.5271 72.8599 16.2082C72.8688 15.9618 72.8414 15.7154 72.7783 15.475C72.7541 15.3947 72.7116 15.3194 72.6533 15.2534C72.5949 15.1874 72.522 15.1322 72.4386 15.0908C72.2028 14.9932 71.9422 14.9488 71.6811 14.9618H71.022V17.3754H71.6811Z" />
      <path d="M76.9094 13.9236H78.7337L80.6055 22.0003H79.0225L78.6522 20.138H77.0249L76.6444 22.0003H75.0376L76.9094 13.9236ZM78.4687 19.2025L77.8334 15.8123L77.1982 19.2025H78.4687Z" />
      <path d="M82.1173 13.9236H83.3063L85.5825 18.5309V13.9236H86.9923V22.0003H85.861L83.5713 17.1906V22.0003H82.1139L82.1173 13.9236Z" />
      <path d="M90.2945 18.9208L88.4022 13.9349H89.9955L91.1506 17.1376L92.2343 13.9349H93.7936L91.9251 18.9208V22.0003H90.2945V18.9208Z" />
      <path d="M50.0477 25.5316V25.954H48.6617V29.2359H48.0807V25.954H46.6879V25.5316H50.0477Z" />
      <path d="M54.3927 29.2361H53.9442C53.8987 29.2386 53.8538 29.226 53.8185 29.2009C53.7846 29.1794 53.7587 29.1499 53.7438 29.1159L53.3429 28.2361H51.4201L51.0192 29.1159C51.0078 29.1527 50.9869 29.1868 50.958 29.2156C50.9225 29.2402 50.8778 29.2527 50.8324 29.2508H50.3839L52.0825 25.5467H52.6737L54.3927 29.2361ZM51.5797 27.8607H53.1833L52.5038 26.3532C52.4537 26.2392 52.4117 26.1227 52.3781 26.0042C52.3543 26.0746 52.3339 26.142 52.3136 26.2007L52.2524 26.3561L51.5797 27.8607Z" />
      <path d="M57.3211 28.8724C57.4275 28.8772 57.5341 28.8772 57.6404 28.8724C57.7323 28.8642 57.8232 28.8495 57.9122 28.8284C57.9954 28.8107 58.0772 28.7882 58.1568 28.7609C58.2316 28.7345 58.3063 28.7022 58.3844 28.67V27.8369H57.705C57.6882 27.8378 57.6714 27.8356 57.6556 27.8305C57.6398 27.8255 57.6254 27.8177 57.6133 27.8076C57.6021 27.7993 57.5933 27.7889 57.5874 27.7772C57.5815 27.7655 57.5787 27.7529 57.5793 27.7401V27.4556H58.8974V28.8753C58.7898 28.9417 58.6762 29.0006 58.5577 29.0513C58.4366 29.1029 58.3104 29.1451 58.1806 29.1774C58.0417 29.2127 57.8996 29.2382 57.7559 29.2537C57.5912 29.2695 57.4257 29.2773 57.26 29.2771C56.967 29.2793 56.6763 29.2325 56.4038 29.1393C56.1495 29.051 55.9184 28.9193 55.7244 28.7521C55.5353 28.5832 55.3864 28.3839 55.2862 28.1655C55.1791 27.9199 55.1261 27.6593 55.1299 27.397C55.1263 27.133 55.1781 26.8706 55.2828 26.6226C55.3805 26.4031 55.5297 26.2033 55.721 26.036C55.9149 25.8693 56.1461 25.7386 56.4005 25.6517C56.6914 25.5572 57.0001 25.5105 57.3109 25.5138C57.4691 25.5137 57.627 25.5245 57.7831 25.5461C57.9212 25.5655 58.0567 25.597 58.1874 25.64C58.3062 25.6785 58.4201 25.7277 58.5271 25.7866C58.6312 25.8445 58.7301 25.9092 58.8227 25.9802L58.6596 26.209C58.6468 26.2299 58.6278 26.2475 58.6045 26.2598C58.5812 26.2722 58.5545 26.279 58.5271 26.2794C58.4895 26.2784 58.453 26.2682 58.4218 26.2501C58.3708 26.2266 58.3165 26.1973 58.2553 26.1621C58.1831 26.123 58.1069 26.0896 58.0277 26.0624C57.9265 26.0273 57.8219 25.9998 57.7152 25.9802C57.5729 25.9576 57.4284 25.9468 57.2837 25.948C57.0596 25.9458 56.8371 25.9807 56.6281 26.0506C56.439 26.1161 56.2686 26.2162 56.1287 26.3439C55.9879 26.4771 55.8803 26.6339 55.8127 26.8045C55.661 27.2056 55.661 27.6381 55.8127 28.0393C55.8871 28.2135 56.0028 28.3724 56.1525 28.5057C56.2918 28.6328 56.4609 28.7328 56.6485 28.799C56.8645 28.8631 57.0934 28.888 57.3211 28.8724Z" />
      <path d="M62.7362 28.8136H64.5911V29.2359H62.1689V25.5316H62.7498L62.7362 28.8136Z" />
      <path d="M66.5208 29.2359H65.9398V25.5316H66.5208V29.2359Z" />
      <path d="M68.6814 25.5492C68.7159 25.5662 68.746 25.5892 68.7697 25.6167L71.253 28.409C71.2497 28.3651 71.2497 28.321 71.253 28.277C71.253 28.236 71.253 28.1949 71.253 28.1568V25.517H71.7592V29.2362H71.4671C71.4238 29.2392 71.3804 29.2321 71.3414 29.2156C71.3061 29.1972 71.275 29.1733 71.2496 29.1452L68.7697 26.3558C68.7697 26.3998 68.7697 26.4409 68.7697 26.482C68.7697 26.523 68.7697 26.5612 68.7697 26.5964V29.2362H68.2839V25.5316H68.5863C68.6191 25.5317 68.6515 25.5377 68.6814 25.5492Z" />
      <path d="M76.0364 25.5316V25.9393H73.9777V27.1624H75.6457V27.5554H73.9777V28.8195H76.0364V29.2272H73.3798V25.5316H76.0364Z" />
      <path d="M15.1618 2.65544L40.9568 8.97876V31.1367L15.1618 24.8164V2.65544ZM13.5073 0.766663V25.8927L42.6079 33.0285V7.90532L13.5073 0.766663Z" />
      <path d="M29.1039 44.6922L0 37.5505V12.4271L29.1039 19.5658V44.6922Z" />
      <path d="M13.9897 2.37093L39.4484 8.61494L28.6215 17.9648L3.1594 11.7179L13.9897 2.37093ZM13.5073 0.766663L0 12.4276L29.1039 19.5662L42.6078 7.90519L13.5073 0.766663Z" />
      <path d="M30.7414 43.2788L42.6078 33.0315L30.7414 30.1193V43.2788Z" />

    </symbol>
</defs>
</svg>
